<svg width="24" height="24" viewBox="0 0 24 24" fill="none" xmlns="http://www.w3.org/2000/svg">
<path d="M17.8755 17.5651C17.4704 17.566 17.0691 17.4866 16.6947 17.3316C16.3204 17.1767 15.9805 16.9491 15.6945 16.6621L12.5445 13.5121C12.433 13.4061 12.2851 13.3471 12.1313 13.3471C11.9775 13.3471 11.8295 13.4061 11.718 13.5121L8.55603 16.6741C8.27019 16.9612 7.93027 17.1889 7.55591 17.3439C7.18156 17.4989 6.7802 17.5781 6.37503 17.5771H5.75403L9.74403 21.5671C10.989 22.8121 13.0095 22.8121 14.2545 21.5671L18.255 17.5651H17.8755ZM6.37503 6.42306C7.20003 6.42306 7.97403 6.74406 8.55603 7.32606L11.718 10.4881C11.7724 10.5425 11.8369 10.5857 11.9079 10.6151C11.979 10.6446 12.0551 10.6597 12.132 10.6597C12.2089 10.6597 12.2851 10.6446 12.3561 10.6151C12.4272 10.5857 12.4917 10.5425 12.546 10.4881L15.696 7.33806C15.9817 7.05108 16.3214 6.82352 16.6954 6.66854C17.0695 6.51355 17.4706 6.43419 17.8755 6.43506H18.255L14.2545 2.43456C13.6563 1.8367 12.8451 1.50085 11.9993 1.50085C11.1535 1.50085 10.3423 1.8367 9.74403 2.43456L5.75403 6.42456L6.37503 6.42306Z" fill="#290200"/>
<path d="M21.5655 9.74405L19.1475 7.32605C19.0932 7.34834 19.0352 7.36005 18.9765 7.36055H17.877C17.3085 7.36055 16.752 7.59155 16.3515 7.99355L13.2015 11.1436C13.0614 11.2844 12.8949 11.3961 12.7114 11.4724C12.528 11.5486 12.3314 11.5879 12.1327 11.5879C11.9341 11.5879 11.7374 11.5486 11.554 11.4724C11.3706 11.3961 11.2041 11.2844 11.064 11.1436L7.90198 7.98005C7.49631 7.57604 6.94752 7.34855 6.37498 7.34705H5.02498C4.96902 7.34661 4.91361 7.33593 4.86148 7.31555L2.43448 9.74405C1.18948 10.9891 1.18948 13.0096 2.43448 14.2561L4.86148 16.6831C4.91303 16.6623 4.96793 16.6511 5.02348 16.6501H6.37498C6.94498 16.6501 7.49998 16.4206 7.90198 16.0186L11.0625 12.8551C11.3509 12.5805 11.7338 12.4273 12.132 12.4273C12.5302 12.4273 12.9131 12.5805 13.2015 12.8551L16.3515 16.0051C16.752 16.4071 17.3085 16.6366 17.877 16.6366H18.9765C19.0365 16.6366 19.095 16.6516 19.1475 16.6726L21.5655 14.2546C22.8105 13.0096 22.8105 10.9891 21.5655 9.74405Z" fill="#290200"/>
</svg>
